<svg width="397" height="265" viewBox="0 0 397 265" fill="none" xmlns="http://www.w3.org/2000/svg">
<path d="M100.459 144.372V158.981H83.0488V192H65.2384V158.981H8.00471V145.773L48.2284 56.1201L63.6374 62.5239L27.4161 144.372H65.4385L67.0394 108.351H83.0488V144.372H100.459Z" fill="url(#paint0_linear_1224_1324)"/>
<path d="M204.483 103.361C205.854 102.934 206.622 101.476 206.195 100.103C205.769 98.7301 204.312 97.9623 202.94 98.3889C201.568 98.8155 200.801 100.274 201.227 101.647C201.653 103.02 203.111 103.787 204.483 103.361Z" fill="white"/>
<path d="M227.527 92.1682C227.627 92.0286 227.736 91.889 227.852 91.7571C229.891 89.4612 232.534 87.8711 235.502 87.1653C236.634 86.8938 237.789 86.7619 238.944 86.7619C240.269 86.7619 241.595 86.9403 242.873 87.2971C243.052 87.3437 243.222 87.398 243.385 87.4522L243.47 87.4833C245.625 88.1814 247.57 89.3603 249.175 90.8884C247.353 88.2899 245.292 85.8389 243.005 83.543C236.301 76.8801 228.31 72.2184 219.032 69.5347C218.822 71.0394 218.365 72.4821 217.652 73.824C216.908 75.2435 215.916 76.5 214.707 77.5627C214.451 77.7876 214.195 77.9893 213.947 78.1832C213.862 78.2452 213.769 78.3151 213.676 78.3771C216.389 80.7506 219.001 83.5507 221.287 86.8317C222.93 89.1975 224.388 91.8114 225.488 94.6581C225.542 94.8132 225.604 94.9606 225.659 95.1157C226.155 94.0918 226.767 93.1223 227.496 92.238L227.542 92.176L227.527 92.1682Z" fill="url(#paint1_linear_1224_1324)"/>
<path d="M192.854 193.655C189.11 189.559 187.614 183.781 188.862 178.212C188.955 177.808 189.041 177.397 189.18 176.939C189.994 174.248 191.428 171.812 193.319 169.819C184.08 168.989 176.724 165.848 171.268 160.387C164.672 153.786 161.378 143.85 161.378 130.571C161.378 130.059 161.393 129.563 161.401 129.066C161.409 128.624 161.416 128.182 161.432 127.748C161.447 127.282 161.471 126.825 161.502 126.375C161.502 126.367 161.486 126.359 161.478 126.351C161.207 126.064 160.943 125.777 160.68 125.49C160.447 125.172 160.207 124.862 159.975 124.552C159.866 124.389 159.727 124.249 159.634 124.079L159.331 123.575C159.13 123.241 158.913 122.915 158.727 122.574C158.393 121.868 157.998 121.201 157.735 120.464C157.587 120.107 157.448 119.751 157.301 119.394C157.184 119.029 157.068 118.657 156.944 118.292C156.688 117.571 156.525 116.819 156.332 116.082C155.626 113.119 155.363 110.132 155.378 107.247C155.409 103.245 155.975 99.4595 156.874 95.9691C156.766 95.9691 156.657 95.9691 156.549 95.9691C156.231 95.9535 155.905 95.9303 155.564 95.8915C153.975 95.6976 152.441 95.2244 151.022 94.4798C149.643 93.7507 148.426 92.8044 147.403 91.6487C140.551 102.011 137.117 114.98 137.117 130.571C137.117 146.162 140.574 159.953 147.48 170.168C153.681 179.522 162.16 186.309 172.919 190.56C179.801 193.337 186.956 194.849 194.381 195.121C193.838 194.671 193.335 194.182 192.854 193.655Z" fill="url(#paint2_linear_1224_1324)"/>
<path d="M253.208 97.6285C253.208 97.6286 253.208 97.6288 253.208 97.6289C253.255 97.8073 253.301 97.9856 253.348 98.1639C253.712 99.6997 253.82 101.282 253.681 102.888C253.681 103.097 253.681 103.307 253.681 103.508C253.673 104.144 253.65 104.78 253.588 105.424C252.728 114.445 246.527 124.179 236.203 132.541C235.569 133.057 235.193 133.832 235.24 134.648L235.583 140.53V146.276C235.583 146.711 235.906 147.084 236.334 147.162C236.931 147.271 237.482 147.402 238.016 147.565C244.605 149.551 249.193 155.578 249.596 162.667C249.775 163.598 249.775 164.893 249.364 166.708C249.232 167.484 249.069 168.174 248.875 168.826C248.713 169.353 248.527 169.896 248.302 170.432C246.364 176.039 243 181.019 238.311 185.223C238.03 185.476 237.744 185.726 237.452 185.973C236.305 186.943 235.602 188.354 235.636 189.856C235.692 192.399 237.77 194.43 240.313 194.43H247.561C254.223 194.43 259.629 189.042 259.651 182.381L259.835 128.205C259.835 116.573 257.627 106.383 253.212 97.6277C253.211 97.626 253.208 97.6266 253.208 97.6285Z" fill="url(#paint3_linear_1224_1324)"/>
<path d="M152.052 92.5247C153.261 93.1607 154.548 93.5485 155.834 93.7037C156.106 93.7347 156.377 93.758 156.648 93.7735C156.927 93.7812 157.214 93.7812 157.501 93.7735C157.741 93.0056 157.989 92.2532 158.26 91.5163C159.136 89.2204 160.113 87.0796 161.213 85.156C162.33 83.2479 163.484 81.4949 164.74 79.9979C165.376 79.2145 166.027 78.4854 166.67 77.8028C167.205 77.2366 167.755 76.7091 168.29 76.2205C169.6 75.0182 170.887 74.0254 172.088 73.2187C172.375 73.0248 172.646 72.8231 172.917 72.6447C173.196 72.4818 173.475 72.3189 173.739 72.1638C174.274 71.8613 174.754 71.5433 175.235 71.3106C175.715 71.0779 176.149 70.8607 176.552 70.659C176.963 70.4651 177.32 70.2634 177.661 70.1393C179.017 69.5809 179.723 69.2551 179.699 69.1775C179.676 69.1077 178.924 69.2939 177.506 69.7205C177.142 69.8136 176.762 69.9842 176.335 70.1471C175.909 70.3255 175.444 70.5116 174.94 70.7133C174.436 70.9227 173.925 71.2175 173.367 71.4967C173.088 71.6363 172.801 71.7915 172.499 71.9466C172.212 72.1173 171.917 72.3034 171.615 72.4896C170.383 73.2342 169.05 74.1805 167.693 75.3284C167.151 75.7861 166.6 76.2825 166.05 76.8022C165.655 76.2282 165.205 75.6853 164.701 75.1888C163.965 74.4675 163.112 73.8314 162.151 73.3273C156.85 70.5349 150.3 72.5671 147.502 77.8648C145.417 81.8284 146.022 86.4979 148.68 89.7711C149.579 90.8725 150.703 91.8188 152.036 92.5247H152.052Z" fill="black"/>
<path d="M181.924 68.8131C182.28 68.72 182.683 68.6813 183.133 68.6192C183.583 68.5571 184.071 68.4796 184.598 68.4098C185.125 68.34 185.706 68.3244 186.311 68.2702C186.613 68.2469 186.931 68.2236 187.257 68.2003C187.582 68.1926 187.923 68.2003 188.264 68.2003C189.714 68.1848 191.341 68.2779 193.101 68.5261C193.822 68.627 194.566 68.7588 195.333 68.9139C196.248 69.1079 197.193 69.3406 198.162 69.6275C200.045 70.155 201.983 70.9462 203.983 71.8925C205.975 72.862 207.99 74.0643 210.013 75.4682C210.641 75.9258 211.277 76.4068 211.904 76.9032C212.145 76.7558 212.385 76.5929 212.61 76.4223C212.827 76.2594 213.036 76.0887 213.245 75.9026C214.222 75.0494 215.059 74.01 215.695 72.7922C216.346 71.5589 216.733 70.2558 216.88 68.945C217.361 64.6401 215.222 60.2732 211.16 58.1324C205.866 55.34 199.309 57.3722 196.511 62.6777C195.806 64.0196 195.41 65.439 195.294 66.8662C195.271 67.161 195.263 67.4557 195.263 67.7505C194.511 67.6264 193.791 67.5333 193.077 67.4635C191.752 67.3316 190.496 67.2696 189.349 67.2928C188.969 67.2928 188.597 67.3083 188.233 67.3316C187.877 67.3471 187.536 67.3549 187.202 67.3859C186.869 67.4247 186.543 67.4635 186.233 67.5023C185.613 67.5876 185.024 67.6341 184.497 67.7427C183.962 67.8591 183.474 67.9677 183.024 68.0607C182.583 68.1616 182.172 68.2391 181.815 68.3632C181.172 68.5649 180.676 68.7355 180.327 68.8597C179.901 69.0148 179.684 69.1156 179.692 69.1544C179.715 69.2242 180.482 69.1001 181.916 68.7898L181.924 68.8131Z" fill="black"/>
<path d="M195.796 122.1C193.695 122.62 192.091 123.457 192.222 123.961C192.339 124.441 193.997 124.441 195.982 123.984C196.067 123.961 196.16 123.945 196.253 123.922C196.346 123.899 196.431 123.875 196.524 123.852C198.485 123.325 199.95 122.55 199.834 122.069C199.71 121.566 197.904 121.589 195.803 122.108L195.796 122.1Z" fill="black"/>
<path d="M199.696 114.934C199.013 112.731 196.006 111.715 192.968 112.653C189.929 113.592 188.023 116.136 188.705 118.339C189.356 120.464 192.185 121.48 195.107 120.705C195.215 120.674 195.324 120.65 195.425 120.619C195.533 120.588 195.634 120.549 195.743 120.511C198.595 119.495 200.347 117.059 199.688 114.934H199.696Z" fill="black"/>
<path d="M204.179 94.7279C199.753 96.1008 197.28 100.801 198.652 105.222C200.024 109.651 204.721 112.126 209.139 110.753C213.565 109.38 216.037 104.687 214.666 100.258C213.294 95.8293 208.604 93.3549 204.179 94.7279ZM204.039 102.042C202.667 102.469 201.21 101.701 200.784 100.328C200.357 98.9552 201.125 97.4969 202.497 97.0703C203.869 96.6437 205.326 97.4116 205.752 98.7845C206.178 100.157 205.411 101.616 204.039 102.042Z" fill="black"/>
<path d="M173.886 104.121C169.46 105.494 166.987 110.194 168.359 114.616C169.731 119.045 174.428 121.519 178.846 120.146C183.272 118.773 185.744 114.073 184.373 109.651C183.001 105.222 178.304 102.748 173.886 104.121ZM178.133 110.078C176.761 110.505 175.296 109.737 174.878 108.364C174.451 106.991 175.219 105.533 176.591 105.106C177.963 104.68 179.42 105.447 179.846 106.828C180.272 108.201 179.505 109.659 178.133 110.086V110.078Z" fill="black"/>
<path d="M230.81 151.265C227.896 151.909 225.245 153.623 223.354 156.098C223.439 159.068 222.385 161.186 220.649 162.745C216.409 166.553 208.162 167.081 202.868 168.904C202.062 169.074 201.279 169.33 200.52 169.656C200.249 169.772 199.985 169.904 199.722 170.036C196.675 171.626 194.195 174.457 193.095 178.118C192.994 178.444 192.924 178.778 192.846 179.111C191.862 183.494 193.102 187.884 195.862 190.901C197.28 192.452 199.094 193.647 201.217 194.291C201.892 194.492 202.566 194.617 203.248 194.702C203.597 194.741 203.938 194.764 204.287 194.772C204.55 194.741 204.806 194.717 205.07 194.694C206.139 194.57 207.186 194.407 208.232 194.236C208.372 194.19 208.511 194.151 208.651 194.105C211.356 193.67 214.324 193.011 217.363 192.065C223.664 190.11 230.276 186.961 235.577 182.191C239.453 178.708 242.638 174.364 244.468 168.997C244.646 168.562 244.816 168.112 244.948 167.663C245.126 167.089 245.243 166.507 245.336 165.925C245.514 165.173 245.692 163.521 245.522 163.342C245.39 157.936 242.034 153.057 236.825 151.49C236.407 151.366 235.988 151.273 235.569 151.188C233.965 150.893 232.345 150.932 230.803 151.265H230.81Z" fill="black"/>
<path d="M250.568 100.072C250.513 99.6765 250.451 99.2731 250.358 98.8698C250.188 98.1484 249.948 97.4581 249.653 96.8066C248.273 93.7039 245.646 91.4235 242.53 90.4152C242.367 90.3609 242.212 90.3066 242.049 90.2678C240.205 89.7559 238.205 89.6938 236.213 90.167C233.771 90.7487 231.702 92.0518 230.16 93.797C230.051 93.9211 229.966 94.053 229.857 94.1771C228.609 95.7129 227.749 97.5434 227.392 99.5136C227.299 100.033 227.245 100.553 227.222 101.088C227.206 101.499 227.206 101.91 227.23 102.321V102.345C218.642 141.042 168.633 132.06 168.633 132.06C176.368 143.416 217.262 143.927 234.26 130.16C234.485 129.973 234.709 129.787 234.942 129.601C243.677 122.333 249.932 113.359 250.56 104.718C250.606 104.074 250.622 103.423 250.606 102.787C250.692 101.903 250.684 100.995 250.568 100.08V100.072Z" fill="black"/>
<path d="M389.943 144.372V158.981H372.533V192H354.723V158.981H297.489V145.773L337.713 56.1201L353.122 62.5239L316.9 144.372H354.923L356.524 108.351H372.533V144.372H389.943Z" fill="url(#paint4_linear_1224_1324)"/>
<path d="M96.992 233.952C99.7227 233.952 101.835 234.528 103.328 235.68C104.821 236.811 105.568 238.507 105.568 240.768C105.568 243.179 104.789 244.971 103.232 246.144C101.675 247.317 99.6053 247.904 97.024 247.904H94.24V256H91.2V233.952H96.992ZM96.896 245.504C98.6667 245.504 100.011 245.163 100.928 244.48C101.867 243.797 102.336 242.571 102.336 240.8C102.336 239.221 101.867 238.08 100.928 237.376C100.011 236.672 98.688 236.32 96.96 236.32H94.24V245.504H96.896ZM119.244 252.064C119.244 252.747 119.361 253.259 119.596 253.6C119.83 253.92 120.182 254.165 120.652 254.336L119.98 256.384C119.105 256.277 118.401 256.032 117.868 255.648C117.334 255.264 116.94 254.667 116.684 253.856C115.553 255.541 113.878 256.384 111.66 256.384C109.996 256.384 108.684 255.915 107.724 254.976C106.764 254.037 106.284 252.811 106.284 251.296C106.284 249.504 106.924 248.128 108.204 247.168C109.505 246.208 111.34 245.728 113.708 245.728H116.3V244.48C116.3 243.285 116.012 242.432 115.436 241.92C114.86 241.408 113.974 241.152 112.78 241.152C111.542 241.152 110.028 241.451 108.236 242.048L107.5 239.904C109.59 239.136 111.532 238.752 113.324 238.752C115.308 238.752 116.79 239.243 117.772 240.224C118.753 241.184 119.244 242.56 119.244 244.352V252.064ZM112.332 254.176C114.017 254.176 115.34 253.301 116.3 251.552V247.68H114.092C110.977 247.68 109.42 248.832 109.42 251.136C109.42 252.139 109.665 252.896 110.156 253.408C110.646 253.92 111.372 254.176 112.332 254.176ZM138.578 239.904C137.938 240.117 137.234 240.256 136.466 240.32C135.698 240.384 134.759 240.416 133.65 240.416C135.634 241.312 136.626 242.731 136.626 244.672C136.626 246.357 136.05 247.733 134.898 248.8C133.746 249.867 132.178 250.4 130.194 250.4C129.426 250.4 128.711 250.293 128.05 250.08C127.794 250.251 127.591 250.485 127.442 250.784C127.292 251.061 127.218 251.349 127.218 251.648C127.218 252.565 127.954 253.024 129.426 253.024H132.114C133.244 253.024 134.247 253.227 135.122 253.632C135.996 254.037 136.668 254.592 137.138 255.296C137.628 256 137.874 256.8 137.874 257.696C137.874 259.339 137.202 260.597 135.858 261.472C134.514 262.368 132.551 262.816 129.97 262.816C128.156 262.816 126.716 262.624 125.65 262.24C124.604 261.877 123.858 261.323 123.41 260.576C122.962 259.829 122.738 258.869 122.738 257.696H125.394C125.394 258.379 125.522 258.912 125.778 259.296C126.034 259.701 126.492 260 127.154 260.192C127.815 260.405 128.754 260.512 129.97 260.512C131.74 260.512 132.999 260.288 133.746 259.84C134.514 259.413 134.898 258.763 134.898 257.888C134.898 257.099 134.599 256.501 134.002 256.096C133.404 255.691 132.572 255.488 131.506 255.488H128.85C127.42 255.488 126.332 255.189 125.586 254.592C124.86 253.973 124.498 253.205 124.498 252.288C124.498 251.733 124.658 251.2 124.978 250.688C125.298 250.176 125.756 249.717 126.354 249.312C125.372 248.8 124.647 248.171 124.178 247.424C123.73 246.656 123.506 245.728 123.506 244.64C123.506 243.509 123.783 242.496 124.338 241.6C124.914 240.704 125.692 240.011 126.674 239.52C127.676 239.008 128.786 238.752 130.002 238.752C131.324 238.773 132.434 238.731 133.33 238.624C134.226 238.496 134.962 238.336 135.538 238.144C136.135 237.931 136.86 237.632 137.714 237.248L138.578 239.904ZM130.002 240.864C128.892 240.864 128.028 241.216 127.41 241.92C126.812 242.603 126.514 243.509 126.514 244.64C126.514 245.792 126.823 246.72 127.442 247.424C128.06 248.107 128.935 248.448 130.066 248.448C131.218 248.448 132.092 248.117 132.69 247.456C133.308 246.773 133.618 245.824 133.618 244.608C133.618 242.112 132.412 240.864 130.002 240.864ZM153.839 247.072C153.839 247.563 153.817 248.064 153.775 248.576H143.023C143.151 250.432 143.62 251.797 144.431 252.672C145.241 253.547 146.287 253.984 147.567 253.984C148.377 253.984 149.124 253.867 149.807 253.632C150.489 253.397 151.204 253.024 151.951 252.512L153.231 254.272C151.439 255.68 149.476 256.384 147.343 256.384C144.996 256.384 143.161 255.616 141.839 254.08C140.537 252.544 139.887 250.432 139.887 247.744C139.887 245.995 140.164 244.448 140.719 243.104C141.295 241.739 142.105 240.672 143.151 239.904C144.217 239.136 145.465 238.752 146.895 238.752C149.135 238.752 150.852 239.488 152.047 240.96C153.241 242.432 153.839 244.469 153.839 247.072ZM150.927 246.208C150.927 244.544 150.596 243.275 149.935 242.4C149.273 241.525 148.281 241.088 146.959 241.088C144.548 241.088 143.236 242.859 143.023 246.4H150.927V246.208ZM174.945 238.752C176.481 238.752 177.675 239.211 178.529 240.128C179.403 241.045 179.841 242.304 179.841 243.904V256H176.897V244.32C176.897 243.125 176.673 242.283 176.225 241.792C175.777 241.301 175.115 241.056 174.241 241.056C173.345 241.056 172.555 241.312 171.873 241.824C171.19 242.336 170.55 243.072 169.953 244.032V256H167.009V239.136H169.537L169.793 241.632C170.39 240.736 171.126 240.032 172.001 239.52C172.897 239.008 173.878 238.752 174.945 238.752ZM192.095 238.752C194.463 238.752 196.297 239.541 197.599 241.12C198.921 242.699 199.583 244.843 199.583 247.552C199.583 249.301 199.284 250.848 198.687 252.192C198.089 253.515 197.225 254.549 196.095 255.296C194.964 256.021 193.62 256.384 192.063 256.384C189.695 256.384 187.849 255.595 186.527 254.016C185.204 252.437 184.543 250.293 184.543 247.584C184.543 245.835 184.841 244.299 185.439 242.976C186.036 241.632 186.9 240.597 188.031 239.872C189.161 239.125 190.516 238.752 192.095 238.752ZM192.095 241.12C189.172 241.12 187.711 243.275 187.711 247.584C187.711 251.872 189.161 254.016 192.063 254.016C194.964 254.016 196.415 251.861 196.415 247.552C196.415 243.264 194.975 241.12 192.095 241.12ZM212.958 255.232C211.849 256 210.59 256.384 209.182 256.384C207.753 256.384 206.633 255.979 205.822 255.168C205.033 254.336 204.638 253.141 204.638 251.584V241.408H201.694V239.136H204.638V235.328L207.582 234.976V239.136H211.582L211.262 241.408H207.582V251.456C207.582 252.331 207.732 252.971 208.03 253.376C208.35 253.76 208.873 253.952 209.598 253.952C210.26 253.952 211.006 253.728 211.838 253.28L212.958 255.232ZM230.206 234.368C229.31 234.368 228.67 234.571 228.286 234.976C227.902 235.36 227.71 235.968 227.71 236.8V239.136H231.806L231.486 241.408H227.71V256H224.766V241.408H221.758V239.136H224.766V236.832C224.766 235.381 225.224 234.219 226.141 233.344C227.08 232.448 228.382 232 230.046 232C230.814 232 231.496 232.075 232.094 232.224C232.712 232.352 233.374 232.565 234.078 232.864L233.15 235.008C232.19 234.581 231.208 234.368 230.206 234.368ZM241.22 238.752C243.588 238.752 245.422 239.541 246.724 241.12C248.046 242.699 248.708 244.843 248.708 247.552C248.708 249.301 248.409 250.848 247.812 252.192C247.214 253.515 246.35 254.549 245.22 255.296C244.089 256.021 242.745 256.384 241.188 256.384C238.82 256.384 236.974 255.595 235.652 254.016C234.329 252.437 233.668 250.293 233.668 247.584C233.668 245.835 233.966 244.299 234.564 242.976C235.161 241.632 236.025 240.597 237.156 239.872C238.286 239.125 239.641 238.752 241.22 238.752ZM241.22 241.12C238.297 241.12 236.836 243.275 236.836 247.584C236.836 251.872 238.286 254.016 241.188 254.016C244.089 254.016 245.54 251.861 245.54 247.552C245.54 243.264 244.1 241.12 241.22 241.12ZM266.115 256H263.587L263.363 253.376C262.723 254.421 261.987 255.189 261.155 255.68C260.323 256.149 259.31 256.384 258.115 256.384C256.643 256.384 255.491 255.936 254.659 255.04C253.827 254.144 253.411 252.875 253.411 251.232V239.136H256.355V250.912C256.355 252.064 256.558 252.885 256.963 253.376C257.369 253.845 258.03 254.08 258.947 254.08C260.59 254.08 261.998 253.109 263.171 251.168V239.136H266.115V256ZM280.132 238.752C281.668 238.752 282.863 239.211 283.716 240.128C284.591 241.045 285.028 242.304 285.028 243.904V256H282.084V244.32C282.084 243.125 281.86 242.283 281.412 241.792C280.964 241.301 280.303 241.056 279.428 241.056C278.532 241.056 277.743 241.312 277.06 241.824C276.378 242.336 275.738 243.072 275.14 244.032V256H272.196V239.136H274.724L274.98 241.632C275.578 240.736 276.314 240.032 277.188 239.52C278.084 239.008 279.066 238.752 280.132 238.752ZM304.002 232.352V256H301.41L301.122 253.664C300.568 254.517 299.874 255.189 299.042 255.68C298.21 256.149 297.282 256.384 296.258 256.384C294.253 256.384 292.685 255.595 291.554 254.016C290.445 252.437 289.89 250.315 289.89 247.648C289.89 245.92 290.157 244.384 290.69 243.04C291.224 241.696 291.992 240.651 292.994 239.904C293.997 239.136 295.17 238.752 296.514 238.752C298.242 238.752 299.757 239.445 301.058 240.832V232L304.002 232.352ZM296.898 254.048C297.794 254.048 298.562 253.845 299.202 253.44C299.842 253.013 300.461 252.384 301.058 251.552V243.296C300.504 242.571 299.906 242.027 299.266 241.664C298.648 241.28 297.944 241.088 297.154 241.088C295.853 241.088 294.84 241.632 294.114 242.72C293.41 243.808 293.058 245.429 293.058 247.584C293.058 249.76 293.389 251.381 294.05 252.448C294.712 253.515 295.661 254.048 296.898 254.048Z" fill="black"/>
<defs>
<linearGradient id="paint0_linear_1224_1324" x1="96.572" y1="-77.0904" x2="-57.8189" y2="109.336" gradientUnits="userSpaceOnUse">
<stop stop-color="#F5EA14"/>
<stop offset="1" stop-color="#0D8C45"/>
</linearGradient>
<linearGradient id="paint1_linear_1224_1324" x1="261.29" y1="49.8408" x2="139.549" y2="185.648" gradientUnits="userSpaceOnUse">
<stop stop-color="#F5EA14"/>
<stop offset="1" stop-color="#0D8C45"/>
</linearGradient>
<linearGradient id="paint2_linear_1224_1324" x1="257.59" y1="46.529" x2="135.857" y2="182.336" gradientUnits="userSpaceOnUse">
<stop stop-color="#F5EA14"/>
<stop offset="1" stop-color="#0D8C45"/>
</linearGradient>
<linearGradient id="paint3_linear_1224_1324" x1="306.93" y1="89.593" x2="182.621" y2="228.268" gradientUnits="userSpaceOnUse">
<stop stop-color="#F5EA14"/>
<stop offset="1" stop-color="#0D8C45"/>
</linearGradient>
<linearGradient id="paint4_linear_1224_1324" x1="386.056" y1="-77.0904" x2="231.665" y2="109.336" gradientUnits="userSpaceOnUse">
<stop stop-color="#F5EA14"/>
<stop offset="1" stop-color="#0D8C45"/>
</linearGradient>
</defs>
</svg>
