<svg width="46" height="46" viewBox="0 0 46 46" fill="none" xmlns="http://www.w3.org/2000/svg">
<circle cx="23" cy="23" r="23" fill="black"/>
<path d="M27.44 16.82C26.7564 16.0396 26.3797 15.0374 26.38 14H23.29V26.4C23.2662 27.071 22.9829 27.7066 22.4998 28.1729C22.0167 28.6393 21.3714 28.8999 20.7 28.9C19.28 28.9 18.1 27.74 18.1 26.3C18.1 24.58 19.76 23.29 21.47 23.82V20.66C18.02 20.2 15 22.88 15 26.3C15 29.63 17.76 32 20.69 32C23.83 32 26.38 29.45 26.38 26.3V20.01C27.633 20.9099 29.1374 21.3926 30.68 21.39V18.3C30.68 18.3 28.8 18.39 27.44 16.82Z" fill="white"/>
</svg>
