<svg width="376" height="121" viewBox="0 0 376 121" fill="none" xmlns="http://www.w3.org/2000/svg">
<path d="M207.945 71.9223C204.629 69.1453 200.611 67.7568 195.89 67.7568C191.169 67.7568 187.024 69.1453 183.708 71.9223C180.392 74.6993 178.734 78.4936 178.734 83.3053V120.996H164.811V83.3053C164.811 77.4981 166.242 72.3371 169.1 67.8179C171.958 63.2988 175.832 59.7969 180.723 57.3081C185.532 54.9023 190.584 53.7015 195.89 53.7015C201.195 53.7015 206.457 54.9241 211.178 57.3693C215.904 59.8144 219.756 63.2376 222.741 67.6345C225.642 72.2759 227.091 77.5025 227.091 83.3097L226.842 121H212.919V83.3097C212.919 78.498 211.261 74.7036 207.945 71.9266V71.9223Z" fill="url(#paint0_linear_262_1314)"/>
<path d="M296.757 104.578C293.733 109.555 289.61 113.533 284.387 116.52C279.165 119.506 273.571 120.995 267.607 120.995C261.642 120.995 255.944 119.48 250.765 116.454C245.586 113.428 241.502 109.302 238.522 104.076C235.454 99.015 233.923 93.4173 233.923 87.2826C233.923 81.1479 235.437 75.6114 238.461 70.4286C241.484 65.2457 245.607 61.1195 250.83 58.05C255.97 55.0634 261.564 53.5701 267.611 53.5701C274.736 53.5701 281.285 55.6834 287.25 59.9144V37.2749L301.172 29.8129L301.299 88.2782C301.299 94.1683 299.785 99.6001 296.761 104.573L296.757 104.578ZM277.428 70.2452C274.444 68.503 271.171 67.6341 267.607 67.6341C264.042 67.6341 260.874 68.5248 257.846 70.3107C254.822 72.0921 252.44 74.4762 250.699 77.4627C248.875 80.3663 247.964 83.6411 247.964 87.2914C247.964 90.9416 248.854 94.0286 250.638 97.0545C252.418 100.08 254.801 102.464 257.785 104.207C260.687 106.032 263.959 106.944 267.607 106.944C271.254 106.944 274.339 106.054 277.363 104.268C280.386 102.486 282.812 100.102 284.636 97.1156C286.377 94.1291 287.245 90.8543 287.245 87.287C287.245 83.7197 286.355 80.5497 284.575 77.5239C282.795 74.498 280.413 72.0703 277.428 70.2452Z" fill="url(#paint1_linear_262_1314)"/>
<path d="M341.816 120.874C335.764 120.874 330.153 119.359 324.974 116.333C319.795 113.307 315.711 109.181 312.731 103.954C309.664 98.8936 308.132 93.296 308.132 87.1613C308.132 81.0266 309.646 75.49 312.67 70.3072C315.694 65.1244 319.817 60.9982 325.04 57.9286C330.179 54.942 335.769 53.4531 341.82 53.4531C347.872 53.4531 353.361 54.9246 358.54 57.8675C363.719 60.8104 367.842 64.7707 370.91 69.7483C373.977 74.8089 375.508 80.2799 375.508 86.1701L375.382 120.503H361.459V114.529C355.49 118.76 348.945 120.874 341.82 120.874H341.816ZM351.638 70.1194C348.653 68.3773 345.381 67.5084 341.816 67.5084C338.251 67.5084 335.084 68.3991 332.06 70.1849C329.036 71.9664 326.654 74.3504 324.913 77.337C323.089 80.2406 322.177 83.5154 322.177 87.1656C322.177 90.8159 323.067 93.9029 324.848 96.9331C326.628 99.959 329.014 102.343 331.995 104.085C334.896 105.91 338.168 106.823 341.816 106.823C345.464 106.823 348.548 105.932 351.572 104.146C354.596 102.365 357.022 99.9808 358.846 96.9943C360.586 94.0077 361.455 90.7329 361.455 87.1656C361.455 83.5983 360.565 80.4284 358.784 77.4025C357.004 74.3766 354.618 71.9489 351.638 70.1238V70.1194Z" fill="url(#paint2_linear_262_1314)"/>
<path d="M1.7019 0C2.85378 4.20915 4.82158 8.26985 7.64891 11.9376C10.4763 15.6053 13.897 18.5482 17.6711 20.7357C16.5193 16.5266 14.5515 12.4659 11.7241 8.79817C8.89678 5.12608 5.47605 2.18317 1.7019 0Z" fill="url(#paint3_linear_262_1314)"/>
<path d="M1.7019 0C2.85378 4.20915 4.82158 8.26985 7.64891 11.9376C10.4763 15.6053 13.897 18.5482 17.6711 20.7357L1.7019 0Z" fill="#1C5D2F"/>
<path d="M10.1878 18.0252H10.1704C9.80384 17.9554 9.43297 17.8986 9.0621 17.8506C5.93371 17.4445 2.87076 17.6759 0.00415039 18.4444C2.58279 19.9158 5.4843 20.9201 8.6127 21.3262C11.7411 21.7279 14.804 21.4965 17.675 20.7324C15.4062 19.4355 12.8886 18.5055 10.1922 18.0252H10.1878Z" fill="url(#paint4_linear_262_1314)"/>
<path d="M0 18.4436C2.57864 19.9151 5.48015 20.9193 8.60855 21.3254C11.7369 21.7271 14.7999 21.4957 17.6709 20.7316L0 18.4436Z" fill="#1C5D2F"/>
<path d="M17.0781 11.667C16.6723 14.7977 16.9036 17.8628 17.6715 20.7359C19.1419 18.1554 20.1454 15.2474 20.5512 12.1167C20.9569 8.98607 20.7213 5.9209 19.9578 3.04785C18.4874 5.62836 17.4795 8.53634 17.0781 11.6626V11.667Z" fill="url(#paint5_linear_262_1314)"/>
<path d="M17.6712 20.7356C16.9033 17.8625 16.6764 14.7973 17.0779 11.6667C17.4836 8.536 18.4872 5.63239 19.9576 3.05188L17.6712 20.7356Z" fill="#1C5D2F"/>
<path d="M19.0491 71.1584H34.8176C32.9981 55.3697 32.9894 39.5941 34.8176 23.8273H19.0491C20.8772 39.5941 20.8642 55.3697 19.0491 71.1584Z" fill="url(#paint6_linear_262_1314)"/>
<path d="M19.0488 120.873H34.8173C32.9979 105.085 32.9892 89.3048 34.8173 73.5424H19.0488C20.877 89.3092 20.8639 105.085 19.0488 120.873Z" fill="url(#paint7_linear_262_1314)"/>
<path d="M30.8774 73.5424H34.8173C32.9892 89.3048 32.9979 105.085 34.8173 120.873H19.0488C34.3898 116.83 26.9331 97.2079 30.873 73.5424H30.8774Z" fill="#1C5D2F"/>
<path d="M30.8776 23.8273H34.8176C32.9894 39.5898 32.9981 55.3697 34.8176 71.1584H19.0491C34.39 67.1152 26.9333 47.4928 30.8733 23.8273H30.8776Z" fill="#1C5D2F"/>
<path d="M81.8883 37.7207C78.8646 32.5379 74.7414 28.4117 69.5187 25.3422C64.3789 22.3556 58.7853 20.8623 52.7379 20.8623C47.236 20.8623 42.0743 22.1285 37.2443 24.6348C36.4982 31.2105 36.0706 37.8779 35.9746 44.4929C37.733 41.6155 40.0455 39.2926 42.9208 37.533C45.9052 35.7908 49.1776 34.9219 52.7423 34.9219C56.307 34.9219 59.4747 35.8127 62.4984 37.5985C65.522 39.38 67.9043 41.764 69.6452 44.7505C71.4691 47.6542 72.381 50.9289 72.381 54.5792C72.381 58.2294 71.4909 61.3164 69.7107 64.3467C67.9305 67.3726 65.5482 69.7566 62.5638 71.4987C60.9451 72.5161 59.2042 73.2409 57.3498 73.6907C56.7215 73.7169 56.0845 73.7387 55.4344 73.7387L37.6239 73.6645H37.3228L37.3054 73.8347C36.8167 78.0657 36.4589 82.336 36.2364 86.6063H55.0199C58.9031 86.6063 62.6554 86.222 66.1983 85.4885C67.3458 84.9776 68.4803 84.4057 69.5885 83.7551C74.7676 80.7292 78.8472 76.603 81.8316 71.3765C84.8989 66.3159 86.4304 60.7183 86.4304 54.5835C86.4304 48.4488 84.9164 42.9123 81.8927 37.7295L81.8883 37.7207Z" fill="url(#paint8_linear_262_1314)"/>
<path d="M124.329 68.8693C125.102 68.6292 125.533 67.8083 125.294 67.0355C125.054 66.2626 124.233 65.8304 123.461 66.0705C122.689 66.3107 122.257 67.1315 122.497 67.9044C122.737 68.6772 123.557 69.1095 124.329 68.8693Z" fill="white"/>
<path d="M137.301 62.5686C137.358 62.49 137.419 62.4114 137.484 62.3372C138.632 61.0448 140.12 60.1497 141.791 59.7523C142.428 59.5995 143.078 59.5253 143.728 59.5253C144.474 59.5253 145.22 59.6257 145.94 59.8266C146.04 59.8528 146.136 59.8833 146.228 59.9139L146.276 59.9313C147.489 60.3243 148.584 60.988 149.487 61.8482C148.462 60.3854 147.301 59.0057 146.014 57.7132C142.24 53.9626 137.742 51.3384 132.519 49.8276C132.401 50.6747 132.144 51.4868 131.742 52.2422C131.323 53.0413 130.765 53.7486 130.084 54.3468C129.94 54.4734 129.796 54.5869 129.657 54.6961C129.609 54.731 129.556 54.7703 129.504 54.8053C131.031 56.1414 132.501 57.7176 133.789 59.5646C134.714 60.8963 135.534 62.3678 136.153 63.9702C136.184 64.0575 136.219 64.1405 136.249 64.2278C136.529 63.6515 136.873 63.1057 137.283 62.6079L137.31 62.573L137.301 62.5686Z" fill="url(#paint9_linear_262_1314)"/>
<path d="M117.785 119.698C115.677 117.392 114.835 114.139 115.538 111.004C115.59 110.777 115.638 110.546 115.716 110.288C116.175 108.773 116.982 107.402 118.046 106.28C112.845 105.813 108.705 104.045 105.633 100.971C101.92 97.2549 100.066 91.6616 100.066 84.1864C100.066 83.8982 100.074 83.6188 100.079 83.3393C100.083 83.0905 100.087 82.8416 100.096 82.5971C100.105 82.3351 100.118 82.0775 100.135 81.8242C100.135 81.8199 100.127 81.8155 100.122 81.8111C99.9697 81.6496 99.8213 81.488 99.673 81.3265C99.5421 81.1474 99.4068 80.9728 99.2759 80.7981C99.2149 80.7064 99.1363 80.6278 99.084 80.5318L98.9138 80.248C98.8004 80.0602 98.6782 79.8768 98.5735 79.6847C98.3859 79.2874 98.1633 78.9119 98.015 78.4971C97.9321 78.2962 97.8536 78.0954 97.7707 77.8945C97.7052 77.6893 97.6398 77.4797 97.5699 77.2745C97.426 76.8684 97.3343 76.4449 97.2253 76.0301C96.8282 74.3622 96.6799 72.6811 96.6886 71.0568C96.706 68.8038 97.0245 66.673 97.5307 64.7082C97.4696 64.7082 97.4085 64.7082 97.3474 64.7082C97.1685 64.6994 96.9853 64.6863 96.7933 64.6645C95.8988 64.5554 95.0349 64.289 94.2365 63.8698C93.4598 63.4594 92.7748 62.9267 92.1989 62.2761C88.3418 68.1096 86.4089 75.4101 86.4089 84.1864C86.4089 92.9628 88.3549 100.726 92.2425 106.477C95.733 111.742 100.506 115.563 106.562 117.956C110.437 119.519 114.464 120.37 118.644 120.523C118.339 120.27 118.055 119.995 117.785 119.698Z" fill="url(#paint10_linear_262_1314)"/>
<path d="M151.761 65.643C151.787 65.7435 151.813 65.8439 151.839 65.9443C152.044 66.8088 152.105 67.6996 152.027 68.6034C152.027 68.7213 152.027 68.8392 152.027 68.9527C152.022 69.3108 152.009 69.6688 151.974 70.0312C151.49 75.1093 147.999 80.589 142.188 85.2959C142 85.4488 141.804 85.5972 141.603 85.7457L141.839 89.7933V93.4566C141.978 93.4741 142.118 93.5003 142.262 93.5265C142.598 93.5876 142.908 93.6618 143.209 93.7535C146.917 94.8713 149.5 98.264 149.727 102.255C149.828 102.779 149.828 103.508 149.596 104.53C149.522 104.966 149.431 105.355 149.321 105.722C149.23 106.019 149.125 106.324 148.999 106.625C147.908 109.782 146.014 112.586 143.374 114.952C142.89 115.389 142.375 115.808 141.839 116.214L141.926 120.135H155.364L155.491 82.8551C155.491 76.3056 154.248 70.5683 151.761 65.6387V65.643Z" fill="url(#paint11_linear_262_1314)"/>
<path d="M94.8165 62.7694C95.4972 63.1274 96.2215 63.3458 96.9458 63.4331C97.0985 63.4505 97.2512 63.4636 97.4039 63.4724C97.561 63.4767 97.7224 63.4767 97.8838 63.4724C98.0191 63.0401 98.1587 62.6166 98.3114 62.2018C98.8045 60.9093 99.3542 59.7042 99.9738 58.6214C100.602 57.5472 101.252 56.5605 101.959 55.7178C102.317 55.2768 102.683 54.8663 103.045 54.4821C103.347 54.1633 103.656 53.8664 103.957 53.5913C104.695 52.9146 105.419 52.3557 106.095 51.9016C106.257 51.7924 106.409 51.6789 106.562 51.5785C106.719 51.4868 106.876 51.3951 107.025 51.3078C107.326 51.1375 107.596 50.9584 107.867 50.8275C108.137 50.6965 108.382 50.5742 108.609 50.4607C108.84 50.3515 109.04 50.238 109.232 50.1681C109.996 49.8538 110.393 49.6704 110.38 49.6267C110.367 49.5874 109.944 49.6922 109.145 49.9324C108.94 49.9848 108.726 50.0808 108.486 50.1725C108.246 50.2729 107.985 50.3777 107.701 50.4912C107.417 50.6091 107.129 50.7751 106.815 50.9322C106.658 51.0108 106.497 51.0982 106.327 51.1855C106.165 51.2816 105.999 51.3863 105.829 51.4911C105.135 51.9103 104.385 52.443 103.621 53.0892C103.316 53.3468 103.006 53.6263 102.696 53.9188C102.474 53.5957 102.221 53.2901 101.937 53.0106C101.523 52.6046 101.043 52.2465 100.502 51.9627C97.5173 50.3908 93.8305 51.5348 92.2554 54.517C91.0817 56.7482 91.422 59.3768 92.9186 61.2193C93.4247 61.8394 94.0573 62.3721 94.8078 62.7694H94.8165Z" fill="black"/>
<path d="M111.633 49.4219C111.833 49.3695 112.06 49.3477 112.313 49.3128C112.566 49.2778 112.841 49.2342 113.138 49.1949C113.435 49.1556 113.762 49.1468 114.102 49.1163C114.272 49.1032 114.451 49.0901 114.635 49.077C114.818 49.0726 115.01 49.077 115.202 49.077C116.018 49.0682 116.934 49.1206 117.924 49.2604C118.33 49.3171 118.749 49.3914 119.181 49.4787C119.696 49.5878 120.228 49.7188 120.774 49.8804C121.834 50.1773 122.925 50.6227 124.05 51.1554C125.172 51.7012 126.306 52.3779 127.445 53.1682C127.798 53.4259 128.156 53.6966 128.509 53.976C128.645 53.8931 128.78 53.8014 128.907 53.7053C129.029 53.6136 129.146 53.5175 129.264 53.4128C129.814 52.9325 130.285 52.3474 130.643 51.6619C131.01 50.9676 131.228 50.2341 131.311 49.4961C131.581 47.0728 130.377 44.6146 128.091 43.4095C125.111 41.8376 121.419 42.9816 119.844 45.9681C119.447 46.7235 119.225 47.5226 119.159 48.326C119.146 48.4919 119.142 48.6578 119.142 48.8237C118.718 48.7539 118.313 48.7015 117.911 48.6622C117.165 48.5879 116.458 48.553 115.813 48.5661C115.599 48.5661 115.389 48.5748 115.184 48.5879C114.984 48.5967 114.792 48.601 114.604 48.6185C114.416 48.6403 114.233 48.6622 114.059 48.684C113.71 48.732 113.378 48.7582 113.081 48.8194C112.78 48.8849 112.505 48.946 112.252 48.9984C112.004 49.0551 111.772 49.0988 111.572 49.1687C111.209 49.2822 110.93 49.3783 110.734 49.4481C110.494 49.5354 110.372 49.5922 110.376 49.614C110.389 49.6533 110.821 49.5835 111.628 49.4088L111.633 49.4219Z" fill="black"/>
<path d="M119.442 79.4191C118.26 79.7115 117.357 80.1827 117.431 80.4663C117.496 80.7368 118.43 80.7368 119.547 80.4794C119.595 80.4663 119.648 80.4576 119.7 80.4445C119.752 80.4314 119.8 80.4183 119.853 80.4052C120.956 80.1085 121.781 79.6722 121.716 79.4017C121.646 79.1181 120.629 79.1312 119.447 79.4235L119.442 79.4191Z" fill="black"/>
<path d="M121.637 75.3835C121.253 74.1434 119.56 73.5715 117.85 74.0998C116.139 74.6281 115.066 76.0603 115.45 77.3003C115.816 78.4967 117.409 79.0687 119.054 78.632C119.115 78.6146 119.176 78.6015 119.233 78.584C119.294 78.5665 119.351 78.5447 119.412 78.5229C121.017 77.9509 122.003 76.5799 121.633 75.3835H121.637Z" fill="black"/>
<path d="M124.159 64.01C121.668 64.7828 120.276 67.4288 121.048 69.9176C121.821 72.4108 124.465 73.8037 126.952 73.0308C129.443 72.258 130.835 69.6163 130.063 67.1232C129.29 64.63 126.651 63.2371 124.159 64.01ZM124.081 68.1274C123.309 68.3676 122.488 67.9353 122.248 67.1625C122.008 66.3896 122.44 65.5687 123.213 65.3286C123.985 65.0884 124.805 65.5207 125.045 66.2936C125.285 67.0664 124.853 67.8873 124.081 68.1274Z" fill="black"/>
<path d="M107.108 69.2976C104.616 70.0704 103.224 72.7164 103.997 75.2052C104.769 77.6984 107.413 79.0913 109.9 78.3184C112.391 77.5456 113.783 74.8996 113.011 72.4108C112.239 69.9176 109.595 68.5247 107.108 69.2976ZM109.499 72.6509C108.726 72.8911 107.902 72.4588 107.666 71.6859C107.426 70.9131 107.858 70.0922 108.63 69.8521C109.403 69.6119 110.223 70.0442 110.463 70.8214C110.703 71.5943 110.271 72.4151 109.499 72.6553V72.6509Z" fill="black"/>
<path d="M139.15 95.8359C137.51 96.1983 136.017 97.1633 134.953 98.5561C135.001 100.228 134.407 101.42 133.43 102.298C131.043 104.442 126.401 104.739 123.421 105.765C122.967 105.861 122.526 106.005 122.099 106.188C121.946 106.254 121.798 106.328 121.649 106.402C119.935 107.298 118.538 108.891 117.919 110.952C117.862 111.136 117.823 111.323 117.779 111.511C117.225 113.978 117.923 116.449 119.477 118.148C120.275 119.021 121.296 119.694 122.491 120.056C122.871 120.169 123.251 120.239 123.635 120.287C123.831 120.309 124.023 120.322 124.219 120.327C124.368 120.309 124.512 120.296 124.66 120.283C125.262 120.213 125.851 120.121 126.44 120.025C126.519 119.999 126.597 119.977 126.676 119.951C128.199 119.707 129.87 119.336 131.58 118.803C135.127 117.703 138.849 115.93 141.833 113.244C144.015 111.284 145.808 108.839 146.838 105.817C146.938 105.573 147.034 105.32 147.109 105.066C147.209 104.743 147.274 104.416 147.327 104.088C147.427 103.665 147.527 102.735 147.431 102.634C147.357 99.5909 145.468 96.8445 142.536 95.9625C142.3 95.8927 142.065 95.8403 141.829 95.7922C140.926 95.6263 140.014 95.6481 139.146 95.8359H139.15Z" fill="black"/>
<path d="M150.272 67.018C150.241 66.7953 150.206 66.5683 150.154 66.3412C150.058 65.9352 149.923 65.5466 149.757 65.1798C148.98 63.4333 147.501 62.1496 145.747 61.5819C145.656 61.5514 145.568 61.5208 145.477 61.499C144.438 61.2108 143.313 61.1759 142.191 61.4422C140.817 61.7697 139.652 62.5032 138.784 63.4857C138.722 63.5555 138.675 63.6297 138.613 63.6996C137.911 64.5641 137.427 65.5946 137.226 66.7037C137.174 66.9962 137.143 67.2887 137.13 67.59C137.121 67.8214 137.121 68.0529 137.134 68.2843V68.2974C132.3 90.081 104.149 85.0248 104.149 85.0248C108.503 91.4171 131.523 91.7053 141.092 83.9551C141.218 83.8503 141.345 83.7455 141.476 83.6407C146.393 79.5494 149.914 74.4976 150.267 69.6335C150.294 69.2711 150.302 68.9043 150.294 68.5462C150.342 68.0485 150.337 67.5376 150.272 67.0224V67.018Z" fill="black"/>
<defs>
<linearGradient id="paint0_linear_262_1314" x1="383.943" y1="-8.85938" x2="201.283" y2="90.3594" gradientUnits="userSpaceOnUse">
<stop stop-color="#F5EA14"/>
<stop offset="1" stop-color="#0D8C45"/>
</linearGradient>
<linearGradient id="paint1_linear_262_1314" x1="397.524" y1="16.1375" x2="214.861" y2="115.361" gradientUnits="userSpaceOnUse">
<stop stop-color="#F5EA14"/>
<stop offset="1" stop-color="#0D8C45"/>
</linearGradient>
<linearGradient id="paint2_linear_262_1314" x1="417.369" y1="52.6715" x2="234.71" y2="151.895" gradientUnits="userSpaceOnUse">
<stop stop-color="#F5EA14"/>
<stop offset="1" stop-color="#0D8C45"/>
</linearGradient>
<linearGradient id="paint3_linear_262_1314" x1="-8.55563" y1="-11.0042" x2="21.1639" y2="23.7425" gradientUnits="userSpaceOnUse">
<stop stop-color="#F5EA14"/>
<stop offset="1" stop-color="#0D8C45"/>
</linearGradient>
<linearGradient id="paint4_linear_262_1314" x1="-13.7542" y1="-5.98828" x2="16.1366" y2="27.7953" gradientUnits="userSpaceOnUse">
<stop stop-color="#F5EA14"/>
<stop offset="1" stop-color="#0D8C45"/>
</linearGradient>
<linearGradient id="paint5_linear_262_1314" x1="-2.29221" y1="-14.5602" x2="25.1631" y2="19.7841" gradientUnits="userSpaceOnUse">
<stop stop-color="#F5EA14"/>
<stop offset="1" stop-color="#0D8C45"/>
</linearGradient>
<linearGradient id="paint6_linear_262_1314" x1="26.9333" y1="-102.949" x2="26.9333" y2="125.973" gradientUnits="userSpaceOnUse">
<stop stop-color="#F5EA14"/>
<stop offset="1" stop-color="#0D8C45"/>
</linearGradient>
<linearGradient id="paint7_linear_262_1314" x1="26.9331" y1="-102.949" x2="26.9331" y2="125.978" gradientUnits="userSpaceOnUse">
<stop stop-color="#F5EA14"/>
<stop offset="1" stop-color="#0D8C45"/>
</linearGradient>
<linearGradient id="paint8_linear_262_1314" x1="81.5131" y1="0.58939" x2="50.0519" y2="68.7088" gradientUnits="userSpaceOnUse">
<stop stop-color="#F5EA14"/>
<stop offset="1" stop-color="#0D8C45"/>
</linearGradient>
<linearGradient id="paint9_linear_262_1314" x1="156.307" y1="38.7415" x2="87.7761" y2="115.19" gradientUnits="userSpaceOnUse">
<stop stop-color="#F5EA14"/>
<stop offset="1" stop-color="#0D8C45"/>
</linearGradient>
<linearGradient id="paint10_linear_262_1314" x1="154.226" y1="36.8771" x2="85.6994" y2="113.326" gradientUnits="userSpaceOnUse">
<stop stop-color="#F5EA14"/>
<stop offset="1" stop-color="#0D8C45"/>
</linearGradient>
<linearGradient id="paint11_linear_262_1314" x1="182.002" y1="61.1195" x2="112.026" y2="139.183" gradientUnits="userSpaceOnUse">
<stop stop-color="#F5EA14"/>
<stop offset="1" stop-color="#0D8C45"/>
</linearGradient>
</defs>
</svg>
