<svg width="23" height="24" viewBox="0 0 23 24" fill="none" xmlns="http://www.w3.org/2000/svg">
<path d="M6.24926 6.9012C6.24926 8.59203 6.72511 10.0406 7.60583 11.0753C8.49281 12.1173 9.75947 12.7012 11.2486 12.7012C12.7837 12.7012 14.0537 12.12 14.9314 11.0723C15.8007 10.0346 16.2479 8.58517 16.2479 6.9012C16.2479 5.21037 15.7721 3.76175 14.8913 2.7271C14.0044 1.68509 12.7377 1.1012 11.2486 1.1012C9.75947 1.1012 8.49281 1.68509 7.60583 2.7271C6.72511 3.76175 6.24926 5.21037 6.24926 6.9012ZM8.44908 6.9012C8.44908 5.96499 8.66141 5.04823 9.11294 4.38159C9.54827 3.73887 10.2207 3.3012 11.2486 3.3012C12.3322 3.3012 12.9997 3.74332 13.4186 4.37696C13.8569 5.03977 14.0481 5.95506 14.0481 6.9012C14.0481 7.83741 13.8358 8.75416 13.3842 9.4208C12.9489 10.0635 12.2765 10.5012 11.2486 10.5012C10.2207 10.5012 9.54827 10.0635 9.11294 9.4208C8.66141 8.75416 8.44908 7.83741 8.44908 6.9012ZM20.0472 21.8012C20.0472 22.1138 20.1984 22.3845 20.3811 22.5672C20.5637 22.7499 20.8345 22.9012 21.1471 22.9012C21.4828 22.9012 21.7713 22.7703 21.9708 22.5459C22.1621 22.3306 22.247 22.0577 22.247 21.8012C22.247 19.273 21.3692 17.3073 19.5526 15.9958C17.7665 14.7064 15.1425 14.1012 11.7485 14.1012C8.35456 14.1012 5.73055 14.7064 3.94447 15.9958C2.12778 17.3073 1.25 19.273 1.25 21.8012C1.25 22.1138 1.40124 22.3845 1.58389 22.5672C1.76654 22.7499 2.03729 22.9012 2.34991 22.9012C2.66253 22.9012 2.93328 22.7499 3.11593 22.5672C3.29858 22.3845 3.44982 22.1138 3.44982 21.8012C3.44982 19.8809 4.095 18.5529 5.38098 17.6769C6.70624 16.7743 8.78337 16.3012 11.7485 16.3012C14.7137 16.3012 16.7908 16.7743 18.116 17.6769C19.402 18.5529 20.0472 19.8809 20.0472 21.8012Z" fill="url(#paint0_linear_286_2572)" stroke="url(#paint1_linear_286_2572)"/>
<defs>
<linearGradient id="paint0_linear_286_2572" x1="19.7982" y1="-4.81272" x2="11.3111" y2="18.2069" gradientUnits="userSpaceOnUse">
<stop stop-color="#F5EA14"/>
<stop offset="1" stop-color="#0D8C45"/>
</linearGradient>
<linearGradient id="paint1_linear_286_2572" x1="19.7982" y1="-4.81272" x2="11.3111" y2="18.2069" gradientUnits="userSpaceOnUse">
<stop stop-color="#F5EA14"/>
<stop offset="1" stop-color="#0D8C45"/>
</linearGradient>
</defs>
</svg>
